# xmcd
#
# Track frame offsets: 
#        150
#        10415
#        24727
#        40735
#        55627
#        72967
#        88535
#        102485
#        120320
#        133965
#
# Disc length: 2001 seconds
#
# Revision: 0
# Processed by: cddbd v1.5.2PL0 Copyright (c) Steve Scherf et al.
# Submitted via: ExactAudioCopy v1.0b3
#
DISCID=8107cf0a
DTITLE=Soul Stirrers - Strength Power And Love
DYEAR=1900
DGENRE=Gospel
TTITLE0=Lord I Thank You
TTITLE1=Lord Oh Lord I Believe
TTITLE2=I'm Travelling On
TTITLE3=I'm Trying To Be Your Friend
TTITLE4=Strength Power And Love
TTITLE5=Oh Lord I'm Trying
TTITLE6=Have You Tried God's Love
TTITLE7=The Year King Uzziah Died
TTITLE8=Song Of Hezekiah
TTITLE9=I'm Trusting His Word
EXTD=
EXTT0=
EXTT1=
EXTT2=
EXTT3=
EXTT4=
EXTT5=
EXTT6=
EXTT7=
EXTT8=
EXTT9=
PLAYORDER=
